<svg id="Helmholtz-Logo" xmlns="http://www.w3.org/2000/svg" viewBox="0 0 737.38 100"><defs><style>.cls-1{fill:#fff;}</style></defs><g id="Logo_White" data-name="Logo White"><path id="Helmholtz" class="cls-1" d="M53.45,0H72.64V100H53.45V59.67H19.18V100H0V0H19.18V40.47H53.45Zm50.13,0a3.25,3.25,0,0,0-2.26,1l-6.2,6.2a2.81,2.81,0,0,0-1,2.25V90.55a2.82,2.82,0,0,0,1,2.26l6.2,6.2a2.82,2.82,0,0,0,2.26,1h53.6V80.82H113.31V59.67H151.4V40.47H113.31V19.18h43.87V0Zm82.47,100h44.6V80.82H195.78V0H176.6V90.55a2.76,2.76,0,0,0,1,2.26l6.2,6.2a2.82,2.82,0,0,0,2.26,1ZM374,40.47V0H354.82V100H374V59.67h34.27V100h19.19V0H408.27V40.47Zm127.61,31a3.61,3.61,0,0,1-1,2.26l-6.06,6.06a3.33,3.33,0,0,1-2.4,1H475a3,3,0,0,1-2.26-1l-6.06-6.06a3,3,0,0,1-1-2.26V28.63a2.82,2.82,0,0,1,1-2.26l6.06-6.2a3.61,3.61,0,0,1,2.26-1h17.21a4,4,0,0,1,2.4,1l6.06,6.2a3.3,3.3,0,0,1,1,2.26Zm4.51-66.72A16.4,16.4,0,0,0,494.84,0H472.42A16.13,16.13,0,0,0,461,4.79l-9.88,9.88A16,16,0,0,0,446.46,26V74a16,16,0,0,0,4.65,11.29l9.88,10A15.76,15.76,0,0,0,472.42,100h22.42a16,16,0,0,0,11.28-4.65l10-10A16,16,0,0,0,520.79,74V26a16,16,0,0,0-4.65-11.28l-10-9.88ZM548.82,100h45.4V80.82H558.55V0H539.37V90.55a2.78,2.78,0,0,0,1,2.26l6.21,6.2a2.82,2.82,0,0,0,2.26,1Zm67-80.82V100H635V19.18h26.51V0H589.32V19.18ZM730.19,1a3.3,3.3,0,0,0-2.27-1h-56V19.18h39.64L670.1,84.77v5.78a3.33,3.33,0,0,0,1,2.26l6.21,6.2a2.82,2.82,0,0,0,2.26,1h57.26V80.82H695.34l42-66.44V9.44a3.34,3.34,0,0,0-1-2.25L730.19,1ZM314.31,0,287.63,46.21,260.94,0H242.59V100h19.18V38.15L279,68a3.2,3.2,0,0,0,2.77,1.6H293.5a3.19,3.19,0,0,0,2.77-1.6l17.08-29.57V100h19.18V0Z"/></g></svg>