<?xml version="1.0" encoding="utf-8"?>
<!-- Generator: Adobe Illustrator 27.1.1, SVG Export Plug-In . SVG Version: 6.00 Build 0)  -->
<svg version="1.1" id="Colour" xmlns="http://www.w3.org/2000/svg" xmlns:xlink="http://www.w3.org/1999/xlink" x="0px" y="0px"
     viewBox="0 0 670 87.9" style="enable-background:new 0 0 670 87.9;" xml:space="preserve">
<style type="text/css">
	.st0{fill:#14C8FF;}
	.st1{fill:#002864;}
</style>
    <polygon id="Path_00000033368624835323828080000009178543289437796509_" class="st0" points="242.5,67.5 267.4,45.1 242.5,22.7
	251.4,12.8 283.1,41.4 283.1,48.8 251.4,77.3 "/>
    <polygon id="Path_00000007429838654344184710000013186469763708512955_" class="st0" points="48,67.5 23.1,45.1 48,22.7 39.1,12.8
	7.3,41.4 7.3,48.8 39.1,77.3 "/>
    <polygon id="Path_00000162345190490067579790000017732847836301778867_" class="st1" points="96,39 96,12.8 108.4,12.8 108.4,77.3
	96,77.3 96,51.3 74.8,51.3 74.8,77.3 62.4,77.3 62.4,12.8 74.8,12.8 74.8,39 "/>
    <path id="Path_00000145749570041281673490000008389583577025750449_" class="st1" d="M175.1,12.9v64.5h-12.4V41.7L154,59.9
	c-0.3,0.6-0.8,0.9-1.5,0.9h-9.7c-0.6,0-1.2-0.4-1.4-0.9l-8.7-18.2v35.7h-12.4V12.9h12.4l15,31.5l15-31.5
	C162.7,12.9,175.1,12.9,175.1,12.9z"/>
    <path id="Path_00000169540209450912692380000004122285266614678697_" class="st1" d="M223.5,58.9l8.8,8.7l-6.7,6.6
	c-1.9,2-4.5,3.2-7.3,3.2H202c-2.7,0-5.4-1.1-7.3-3l-6.4-6.4c-1.9-2-2.9-4.7-2.9-7.4v-31c0-2.7,1.1-5.3,3-7.3l6.4-6.4
	c1.9-1.9,4.5-3,7.2-3.1h16.3c2.8,0,5.4,1.2,7.3,3.2l6.7,6.6l-8.8,8.7l-5.5-5.5c-0.4-0.4-0.9-0.6-1.5-0.6h-12.7
	c-0.5,0-1.1,0.2-1.5,0.6l-4.3,4c-0.4,0.4-0.6,0.9-0.6,1.5v27.6c0,0.6,0.2,1.1,0.6,1.5l4,4c0.4,0.4,0.9,0.6,1.5,0.6h12.7
	c0.6,0,1.1-0.2,1.5-0.6L223.5,58.9z"/>
    <g>
	<path class="st1" d="M320.5,24V12.9h5.3v27.5h-5.3V29.3h-9.4v11.1h-5.3V12.9h5.3V24H320.5z"/>
        <path class="st1" d="M336.1,18.2V24h10.1v5.3h-10.1v5.8h12.1v5.3h-14.7c-0.2,0-0.5-0.1-0.6-0.3l-1.7-1.7c-0.2-0.2-0.3-0.4-0.3-0.6
		V15.5c0-0.2,0.1-0.5,0.3-0.6l1.7-1.7c0.2-0.2,0.4-0.3,0.6-0.3h14.7v5.3H336.1z"/>
        <path class="st1" d="M368.7,35.1v5.3h-13.3c-0.2,0-0.5-0.1-0.6-0.3l-1.7-1.7c-0.2-0.2-0.3-0.4-0.3-0.6V12.9h5.3v22.2H368.7z"/>
        <path class="st1" d="M396.7,12.9v27.5h-5.3V25.2l-3.7,7.8c-0.1,0.2-0.3,0.4-0.6,0.4h-4.2c-0.3,0-0.5-0.1-0.6-0.4l-3.7-7.8v15.2
		h-5.3V12.9h5.3l6.4,13.4l6.4-13.4H396.7z"/>
        <path class="st1" d="M416.8,24V12.9h5.3v27.5h-5.3V29.3h-9.4v11.1h-5.3V12.9h5.3V24H416.8z"/>
        <path class="st1" d="M443.6,14.2l2.8,2.7c0.8,0.8,1.3,1.9,1.3,3.1v13.2c0,1.2-0.5,2.3-1.3,3.1l-2.8,2.8c-0.8,0.8-1.9,1.3-3.1,1.3
		h-6.2c-1.2,0-2.3-0.4-3.1-1.3l-2.7-2.8c-0.8-0.8-1.3-1.9-1.3-3.1V20c0-1.2,0.5-2.3,1.3-3.1l2.7-2.7c0.9-0.9,2-1.3,3.1-1.3h6.2
		C441.6,12.8,442.7,13.3,443.6,14.2z M442.3,32.5V20.7c0-0.2-0.1-0.5-0.3-0.6l-1.7-1.7c-0.2-0.2-0.4-0.3-0.7-0.3H435
		c-0.2,0-0.4,0.1-0.6,0.3l-1.7,1.7c-0.2,0.2-0.3,0.4-0.3,0.6v11.8c0,0.2,0.1,0.4,0.3,0.6l1.7,1.7c0.2,0.2,0.4,0.3,0.6,0.3h4.7
		c0.2,0,0.5-0.1,0.7-0.3l1.7-1.7C442.2,32.9,442.3,32.8,442.3,32.5z"/>
        <path class="st1" d="M468.5,35.1v5.3h-13.3c-0.2,0-0.5-0.1-0.6-0.3l-1.7-1.7c-0.2-0.2-0.3-0.4-0.3-0.6V12.9h5.3v22.2H468.5z"/>
        <path class="st1" d="M469.1,18.2v-5.3h19.1v5.3h-6.9v22.2H476V18.2H469.1z"/>
        <path class="st1" d="M508.2,12.9c0.2,0,0.5,0.1,0.6,0.3l1.7,1.7c0.2,0.2,0.3,0.4,0.3,0.6v1.3l-11.6,18.3h11.6v5.3h-15.9
		c-0.2,0-0.5-0.1-0.6-0.3l-1.7-1.7c-0.2-0.2-0.3-0.4-0.3-0.6v-1.6l11.4-18h-11.3v-5.3C492.4,12.9,508.2,12.9,508.2,12.9z"/>
</g>
    <g>
	<path class="st1" d="M327.5,77.3h-3.3V60.4l-6.1,16.9h-3l-6.1-17v17h-3.3V54.1h4.2l6.6,18.2l6.6-18.2h4.2v23.2H327.5z"/>
        <path class="st1" d="M346.6,69.7H335v0.9c0,2.6,1.6,4.2,4.3,4.2c2.3,0,4-1.3,4-2.9h3.2c-0.2,3.5-3.1,5.9-7.2,5.9
		c-4.5,0-7.5-2.8-7.5-7.1v-4.2c0-4.3,3-7.1,7.4-7.1s7.3,2.8,7.3,7.1v3.2H346.6z M335,66.5V67h8.4v-0.5c0-2.6-1.6-4.3-4.1-4.3
		C336.7,62.3,335,64,335,66.5z"/>
        <path class="st1" d="M355.8,55v4.7h5.8v2.9h-5.8v9.5c0,1.5,0.7,2.2,2.1,2.2h2.8v2.9h-2.9c-3.4,0-5.2-1.8-5.2-5v-9.6H348v-2.9h3.8
		c0.7,0,1-0.3,1-1V55H355.8z"/>
        <path class="st1" d="M378,65.9v11.5h-2.9L375,76c-1.2,1.2-3,1.8-5.2,1.8c-3.9,0-6.2-1.9-6.2-5.1c0-2.9,1.8-4.5,5.8-5l5.4-0.7v-1.1
		c0-2.3-1.3-3.5-3.8-3.5s-3.9,1.2-3.9,3.3v0.2h-3.2v-0.2c0-3.8,2.8-6.3,7.2-6.3C375.5,59.3,378,61.7,378,65.9z M374.8,72.5v-3
		l-4.8,0.7c-2.2,0.3-3.1,1.2-3.1,2.5c0,1.5,1.2,2.3,3.2,2.3S373.9,74.1,374.8,72.5z"/>
        <path class="st1" d="M393.5,52.6h3.2v24.7h-2.9l-0.1-1.5c-1.2,1.2-3,1.9-5,1.9c-4.1,0-6.8-2.8-6.8-7v-4.5c0-4.2,2.7-7,6.8-7
		c2,0,3.6,0.6,4.8,1.8V52.6z M393.5,72.4v-7.8c-0.8-1.5-2.4-2.3-4.2-2.3c-2.6,0-4.2,1.6-4.2,4.1v4.3c0,2.5,1.6,4.1,4.2,4.1
		C391.1,74.7,392.7,73.9,393.5,72.4z"/>
        <path class="st1" d="M415,65.9v11.5h-2.9L412,76c-1.2,1.2-3,1.8-5.2,1.8c-3.9,0-6.2-1.9-6.2-5.1c0-2.9,1.8-4.5,5.8-5l5.4-0.7v-1.1
		c0-2.3-1.3-3.5-3.8-3.5s-3.9,1.2-3.9,3.3v0.2h-3.2v-0.2c0-3.8,2.8-6.3,7.2-6.3C412.5,59.3,415,61.7,415,65.9z M411.8,72.5v-3
		l-4.8,0.7c-2.2,0.3-3.1,1.2-3.1,2.5c0,1.5,1.2,2.3,3.2,2.3C409.2,75,410.9,74.1,411.8,72.5z"/>
        <path class="st1" d="M424.7,55v4.7h5.8v2.9h-5.8v9.5c0,1.5,0.7,2.2,2.1,2.2h2.8v2.9h-2.9c-3.4,0-5.2-1.8-5.2-5v-9.6h-4.6v-2.9h3.8
		c0.7,0,1-0.3,1-1V55H424.7z"/>
        <path class="st1" d="M446.9,65.9v11.5H444l-0.1-1.4c-1.2,1.2-3,1.8-5.2,1.8c-3.9,0-6.2-1.9-6.2-5.1c0-2.9,1.8-4.5,5.8-5l5.4-0.7
		v-1.1c0-2.3-1.3-3.5-3.8-3.5s-3.9,1.2-3.9,3.3v0.2h-3.2v-0.2c0-3.8,2.8-6.3,7.2-6.3C444.4,59.3,446.9,61.7,446.9,65.9z M443.7,72.5
		v-3l-4.8,0.7c-2.2,0.3-3.1,1.2-3.1,2.5c0,1.5,1.2,2.3,3.2,2.3C441,75,442.8,74.1,443.7,72.5z"/>
        <path class="st1" d="M461.1,69.2v-7c0-5.1,3.6-8.6,8.9-8.6c5.2,0,8.8,3.4,8.8,8.2v0.9h-3.3v-0.9c0-3.2-2.1-5.1-5.5-5.1
		c-3.5,0-5.6,2.1-5.6,5.6V69c0,3.6,2,5.6,5.6,5.6c3.4,0,5.5-1.9,5.5-5.1v-0.9h3.3v0.9c0,4.9-3.6,8.2-8.8,8.2
		C464.7,77.7,461.1,74.3,461.1,69.2z"/>
        <path class="st1" d="M482.5,70.6v-4.1c0-4.3,2.9-7.2,7.4-7.2s7.5,2.8,7.5,7.2v4.1c0,4.3-2.9,7.1-7.5,7.1
		C485.5,77.7,482.5,74.9,482.5,70.6z M494.2,70.5v-4c0-2.6-1.6-4.3-4.3-4.3c-2.6,0-4.3,1.6-4.3,4.3v4c0,2.6,1.7,4.2,4.3,4.2
		C492.6,74.7,494.2,73.1,494.2,70.5z"/>
        <path class="st1" d="M501.7,77.3V52.6h3.2v24.7H501.7z"/>
        <path class="st1" d="M509.9,77.3V52.6h3.2v24.7H509.9z"/>
        <path class="st1" d="M531.7,65.9v11.5h-2.9l-0.1-1.4c-1.2,1.2-3,1.8-5.2,1.8c-3.9,0-6.2-1.9-6.2-5.1c0-2.9,1.8-4.5,5.8-5l5.4-0.7
		v-1.1c0-2.3-1.3-3.5-3.8-3.5s-3.9,1.2-3.9,3.3v0.2h-3.2v-0.2c0-3.8,2.8-6.3,7.2-6.3C529.2,59.3,531.7,61.7,531.7,65.9z M528.5,72.5
		v-3l-4.8,0.7c-2.2,0.3-3.1,1.2-3.1,2.5c0,1.5,1.2,2.3,3.2,2.3C525.9,75,527.6,74.1,528.5,72.5z"/>
        <path class="st1" d="M551,66.3v4.5c0,4.2-2.7,7-6.8,7c-2,0-3.8-0.7-5-1.9l-0.1,1.5h-2.9V52.6h3.2v8.5c1.2-1.2,2.9-1.8,4.8-1.8
		C548.4,59.3,551,62.1,551,66.3z M547.8,66.4c0-2.5-1.6-4.1-4.1-4.1c-1.8,0-3.4,0.8-4.2,2.3v7.8c0.8,1.5,2.4,2.3,4.2,2.3
		c2.5,0,4.1-1.6,4.1-4.1V66.4z"/>
        <path class="st1" d="M554.5,70.6v-4.1c0-4.3,2.9-7.2,7.4-7.2s7.5,2.8,7.5,7.2v4.1c0,4.3-2.9,7.1-7.5,7.1
		C557.4,77.7,554.5,74.9,554.5,70.6z M566.2,70.5v-4c0-2.6-1.6-4.3-4.3-4.3c-2.6,0-4.3,1.6-4.3,4.3v4c0,2.6,1.7,4.2,4.3,4.2
		S566.2,73.1,566.2,70.5z"/>
        <path class="st1" d="M583.3,59.7v2.9h-2.6c-1.8,0-3.2,0.8-4,2.2v12.4h-3.2V59.7h2.9l0.1,1.5c1.1-1,2.6-1.5,4.3-1.5H583.3z"/>
        <path class="st1" d="M599.2,65.9v11.5h-2.9l-0.1-1.4c-1.2,1.2-3,1.8-5.2,1.8c-3.9,0-6.2-1.9-6.2-5.1c0-2.9,1.8-4.5,5.8-5L596,67
		v-1.1c0-2.3-1.3-3.5-3.8-3.5s-3.9,1.2-3.9,3.3v0.2H585v-0.2c0-3.8,2.8-6.3,7.2-6.3C596.7,59.3,599.2,61.7,599.2,65.9z M596,72.5v-3
		l-4.8,0.7c-2.2,0.3-3.1,1.2-3.1,2.5c0,1.5,1.2,2.3,3.2,2.3C593.3,75,595.1,74.1,596,72.5z"/>
        <path class="st1" d="M608.8,55v4.7h5.8v2.9h-5.8v9.5c0,1.5,0.7,2.2,2.1,2.2h2.8v2.9h-2.9c-3.4,0-5.2-1.8-5.2-5v-9.6H601v-2.9h3.8
		c0.7,0,1-0.3,1-1V55H608.8z"/>
        <path class="st1" d="M616.9,54.9c0-1.3,1-2.2,2.2-2.2c1.3,0,2.2,0.9,2.2,2.2c0,1.2-0.9,2.2-2.2,2.2C617.8,57,616.9,56.1,616.9,54.9
		z M620.7,77.3h-3.2V59.7h3.2V77.3z"/>
        <path class="st1" d="M625,70.6v-4.1c0-4.3,2.9-7.2,7.4-7.2s7.5,2.8,7.5,7.2v4.1c0,4.3-2.9,7.1-7.5,7.1C628,77.7,625,74.9,625,70.6z
		 M636.7,70.5v-4c0-2.6-1.6-4.3-4.3-4.3c-2.6,0-4.3,1.6-4.3,4.3v4c0,2.6,1.7,4.2,4.3,4.2C635.1,74.7,636.7,73.1,636.7,70.5z"/>
        <path class="st1" d="M658.4,66.2v11.2h-3.2v-11c0-2.5-1.5-4.1-3.8-4.1c-1.8,0-3.4,0.9-4.2,2.3v12.7H644V59.7h2.9l0.1,1.6
		c1.2-1.3,2.9-2,5-2C655.9,59.3,658.4,61.9,658.4,66.2z"/>
</g>
</svg>
