
<svg
    xmlns="http://www.w3.org/2000/svg"
    width="24"
    height="26"
    fill="none"
>
<path
    fill="#fff"
    d="M24 8.537c0-5.64-3.657-7.294-3.657-7.294C18.499.387 15.333.027 12.043 0h-.08C8.673.027 5.51.387 3.665 1.243c.001 0-3.657 1.652-3.657 7.294 0 1.291-.025 2.835.015 4.472.133 5.517 1 10.952 6.047 12.302 2.327.622 4.325.752 5.933.664 2.918-.164 4.555-1.052 4.555-1.052l-.095-2.139s-2.085.664-4.427.583c-2.32-.08-4.77-.252-5.144-3.13a5.944 5.944 0 0 1-.053-.808s2.278.563 5.164.696c1.765.082 3.42-.105 5.102-.306 3.224-.39 6.031-2.397 6.383-4.23.556-2.89.51-7.051.51-7.051L24 8.537Zm-4.314 7.267h-2.678V9.175c0-1.396-.583-2.107-1.746-2.107-1.286 0-1.93.842-1.93 2.505v3.628h-2.663V9.573c0-1.664-.644-2.505-1.93-2.505-1.165 0-1.746.71-1.746 2.107v6.629H4.315V8.975c0-1.395.352-2.505 1.058-3.326.729-.82 1.683-1.24 2.866-1.24 1.37 0 2.408.532 3.095 1.596L12 7.135l.667-1.13c.686-1.064 1.723-1.597 3.094-1.597 1.184 0 2.138.42 2.867 1.241.707.821 1.058 1.93 1.058 3.326v6.829Z"
/>
</svg>